<?xml version="1.0" encoding="UTF-8"?>
<svg xmlns="http://www.w3.org/2000/svg" xmlns:xlink="http://www.w3.org/1999/xlink" width="375pt" height="374.999991pt" viewBox="0 0 375 374.999991" version="1.2">
<defs>
<clipPath id="clip1">
  <path d="M 112.5 112.5 L 262.5 112.5 L 262.5 262.5 L 112.5 262.5 Z M 112.5 112.5 "/>
</clipPath>
</defs>
<g id="surface1">
<rect x="0" y="0" width="375" height="374.999991" style="fill:rgb(100%,100%,100%);fill-opacity:1;stroke:none;"/>
<rect x="0" y="0" width="375" height="374.999991" style="fill:rgb(100%,100%,100%);fill-opacity:1;stroke:none;"/>
<rect x="0" y="0" width="375" height="374.999991" style="fill:rgb(100%,100%,100%);fill-opacity:1;stroke:none;"/>
<g clip-path="url(#clip1)" clip-rule="nonzero">
<path style=" stroke:none;fill-rule:nonzero;fill:rgb(20.388794%,67.059326%,87.449646%);fill-opacity:1;" d="M 207.066406 216.847656 L 203.804688 216.847656 L 203.804688 180.976562 C 203.804688 179.179688 202.34375 177.71875 200.542969 177.71875 L 174.457031 177.71875 C 169.0625 177.71875 164.675781 182.105469 164.675781 187.5 C 164.675781 192.894531 169.0625 197.28125 174.457031 197.28125 L 177.71875 197.28125 L 177.71875 216.847656 L 174.457031 216.847656 C 169.0625 216.847656 164.675781 221.238281 164.675781 226.628906 C 164.675781 232.023438 169.0625 236.414062 174.457031 236.414062 L 207.066406 236.414062 C 212.457031 236.414062 216.847656 232.023438 216.847656 226.628906 C 216.847656 221.238281 212.457031 216.847656 207.066406 216.847656 Z M 207.066406 229.890625 L 174.457031 229.890625 C 172.65625 229.890625 171.195312 228.429688 171.195312 226.628906 C 171.195312 224.832031 172.65625 223.371094 174.457031 223.371094 L 180.976562 223.371094 C 182.777344 223.371094 184.238281 221.910156 184.238281 220.109375 L 184.238281 194.023438 C 184.238281 192.222656 182.777344 190.761719 180.976562 190.761719 L 174.457031 190.761719 C 172.65625 190.761719 171.195312 189.300781 171.195312 187.5 C 171.195312 185.699219 172.65625 184.238281 174.457031 184.238281 L 197.28125 184.238281 L 197.28125 220.109375 C 197.28125 221.910156 198.742188 223.371094 200.542969 223.371094 L 207.066406 223.371094 C 208.863281 223.371094 210.324219 224.832031 210.324219 226.628906 C 210.324219 228.429688 208.863281 229.890625 207.066406 229.890625 Z M 187.5 112.5 C 146.144531 112.5 112.5 146.144531 112.5 187.5 C 112.5 228.855469 146.144531 262.5 187.5 262.5 C 228.855469 262.5 262.5 228.855469 262.5 187.5 C 262.5 146.144531 228.855469 112.5 187.5 112.5 Z M 187.5 255.976562 C 149.738281 255.976562 119.023438 225.261719 119.023438 187.5 C 119.023438 149.738281 149.738281 119.023438 187.5 119.023438 C 225.261719 119.023438 255.976562 149.738281 255.976562 187.5 C 255.976562 225.261719 225.261719 255.976562 187.5 255.976562 Z M 187.5 171.195312 C 196.488281 171.195312 203.804688 163.878906 203.804688 154.890625 C 203.804688 145.90625 196.488281 138.585938 187.5 138.585938 C 178.511719 138.585938 171.195312 145.90625 171.195312 154.890625 C 171.195312 163.878906 178.511719 171.195312 187.5 171.195312 Z M 187.5 145.109375 C 192.894531 145.109375 197.28125 149.496094 197.28125 154.890625 C 197.28125 160.285156 192.894531 164.675781 187.5 164.675781 C 182.105469 164.675781 177.71875 160.285156 177.71875 154.890625 C 177.71875 149.496094 182.105469 145.109375 187.5 145.109375 Z M 187.5 145.109375 "/>
</g>
</g>
</svg>
