<?xml version="1.0" encoding="UTF-8"?>
<svg xmlns="http://www.w3.org/2000/svg" xmlns:xlink="http://www.w3.org/1999/xlink" width="375pt" height="374.999991pt" viewBox="0 0 375 374.999991" version="1.2">
<defs>
<clipPath id="clip1">
  <path d="M 156 112.5 L 220 112.5 L 220 196 L 156 196 Z M 156 112.5 "/>
</clipPath>
<clipPath id="clip2">
  <path d="M 124 136 L 252 136 L 252 262.5 L 124 262.5 Z M 124 136 "/>
</clipPath>
</defs>
<g id="surface1">
<rect x="0" y="0" width="375" height="374.999991" style="fill:rgb(100%,100%,100%);fill-opacity:1;stroke:none;"/>
<rect x="0" y="0" width="375" height="374.999991" style="fill:rgb(100%,100%,100%);fill-opacity:1;stroke:none;"/>
<rect x="0" y="0" width="375" height="374.999991" style="fill:rgb(100%,100%,100%);fill-opacity:1;stroke:none;"/>
<g clip-path="url(#clip1)" clip-rule="nonzero">
<path style=" stroke:none;fill-rule:evenodd;fill:rgb(0%,0%,0%);fill-opacity:1;" d="M 199.753906 182.671875 L 199.753906 175.878906 C 199.753906 173.539062 201.09375 171.972656 202.746094 170.472656 C 204.351562 169.003906 206.265625 167.636719 208.183594 166.121094 C 213.9375 161.523438 219.589844 155.71875 219.589844 144.230469 C 219.589844 121.632812 201.457031 112.5 187.851562 112.5 C 174.25 112.5 156.117188 121.53125 156.117188 144.230469 C 156.117188 150.347656 161.816406 154.054688 168.015625 154.054688 C 174.214844 154.054688 179.917969 150.347656 179.917969 144.230469 C 179.917969 138.90625 183.933594 136.320312 187.851562 136.320312 C 191.738281 136.320312 195.789062 138.957031 195.789062 144.230469 C 195.789062 144.90625 195.273438 145.433594 194.730469 146.027344 C 193.570312 147.328125 191.96875 148.617188 190.234375 150.050781 C 183.785156 155.40625 175.953125 162.496094 175.953125 175.878906 L 175.953125 182.671875 C 175.953125 191.390625 182.019531 195.527344 187.851562 195.527344 C 193.6875 195.527344 199.753906 191.390625 199.753906 182.671875 Z M 191.820312 182.671875 C 191.820312 185.820312 189.96875 187.617188 187.851562 187.617188 C 185.738281 187.617188 183.886719 185.820312 183.886719 182.671875 C 183.886719 182.671875 183.886719 175.878906 183.886719 175.878906 C 183.886719 163.550781 192.894531 158.355469 198.085938 153.792969 C 201.621094 150.691406 203.722656 147.578125 203.722656 144.230469 C 203.722656 133.679688 195.636719 128.40625 187.851562 128.40625 C 180.019531 128.40625 171.984375 133.566406 171.984375 144.230469 C 171.984375 144.921875 171.421875 145.300781 170.828125 145.582031 C 170 145.976562 169.007812 146.144531 168.015625 146.144531 C 167.023438 146.144531 166.035156 145.976562 165.207031 145.582031 C 164.613281 145.300781 164.050781 144.921875 164.050781 144.230469 C 164.050781 127.203125 177.652344 120.410156 187.851562 120.410156 C 198.050781 120.410156 211.65625 127.269531 211.65625 144.230469 C 211.65625 154.449219 205.242188 158.355469 200.316406 162.199219 C 195.472656 165.972656 191.820312 169.847656 191.820312 175.878906 C 191.820312 175.878906 191.820312 182.671875 191.820312 182.671875 Z M 191.820312 182.671875 "/>
</g>
<path style=" stroke:none;fill-rule:evenodd;fill:rgb(0%,0%,0%);fill-opacity:1;" d="M 187.851562 199.53125 C 181.289062 199.53125 175.953125 204.855469 175.953125 211.402344 C 175.953125 217.945312 181.289062 223.269531 187.851562 223.269531 C 194.414062 223.269531 199.753906 217.945312 199.753906 211.402344 C 199.753906 204.855469 194.414062 199.53125 187.851562 199.53125 Z M 187.851562 207.445312 C 190.035156 207.445312 191.820312 209.226562 191.820312 211.402344 C 191.820312 213.578125 190.035156 215.355469 187.851562 215.355469 C 185.671875 215.355469 183.886719 213.578125 183.886719 211.402344 C 183.886719 209.226562 185.671875 207.445312 187.851562 207.445312 Z M 187.851562 207.445312 "/>
<g clip-path="url(#clip2)" clip-rule="nonzero">
<path style=" stroke:none;fill-rule:evenodd;fill:rgb(0%,0%,0%);fill-opacity:1;" d="M 144.113281 253.253906 C 144.164062 253.054688 144.214844 252.855469 144.28125 252.675781 C 146.328125 245.902344 150.480469 236.769531 150.480469 236.769531 C 151.023438 235.53125 150.925781 234.117188 150.199219 232.996094 C 149.453125 231.855469 148.199219 231.179688 146.859375 231.179688 L 136.28125 231.179688 C 134.097656 231.179688 132.3125 229.402344 132.3125 227.226562 C 132.3125 227.226562 132.3125 148.105469 132.3125 148.105469 C 132.3125 145.929688 134.097656 144.148438 136.28125 144.148438 L 148.179688 144.148438 C 150.363281 144.148438 152.148438 142.367188 152.148438 140.191406 C 152.148438 138.015625 150.363281 136.234375 148.179688 136.234375 L 136.28125 136.234375 C 129.71875 136.234375 124.378906 141.558594 124.378906 148.105469 L 124.378906 227.226562 C 124.378906 233.769531 129.71875 239.09375 136.28125 239.09375 L 140.875 239.09375 C 138.726562 244.367188 135.832031 252.015625 135.402344 255.988281 C 134.890625 260.835938 137.617188 262.828125 140.246094 262.828125 C 143.140625 262.828125 147.867188 260.570312 152.84375 256.945312 C 160.777344 251.160156 169.96875 242.273438 173.191406 239.09375 C 173.191406 239.09375 239.425781 239.09375 239.425781 239.09375 C 245.988281 239.09375 251.328125 233.769531 251.328125 227.226562 C 251.328125 227.226562 251.328125 148.105469 251.328125 148.105469 C 251.328125 141.558594 245.988281 136.234375 239.425781 136.234375 C 239.425781 136.234375 227.523438 136.234375 227.523438 136.234375 C 225.34375 136.234375 223.558594 138.015625 223.558594 140.191406 C 223.558594 142.367188 225.34375 144.148438 227.523438 144.148438 L 239.425781 144.148438 C 241.609375 144.148438 243.394531 145.929688 243.394531 148.105469 L 243.394531 227.226562 C 243.394531 229.402344 241.609375 231.179688 239.425781 231.179688 C 239.425781 231.179688 171.539062 231.179688 171.539062 231.179688 C 170.480469 231.179688 169.457031 231.609375 168.710938 232.367188 C 168.710938 232.367188 157.535156 243.742188 148.164062 250.550781 C 146.757812 251.570312 145.386719 252.496094 144.113281 253.253906 Z M 144.113281 253.253906 "/>
</g>
</g>
</svg>
