<?xml version="1.0" encoding="UTF-8"?>
<svg xmlns="http://www.w3.org/2000/svg" xmlns:xlink="http://www.w3.org/1999/xlink" width="375pt" height="374.999991pt" viewBox="0 0 375 374.999991" version="1.2">
<defs>
<clipPath id="clip1">
  <path d="M 112.5 231 L 262.5 231 L 262.5 262.5 L 112.5 262.5 Z M 112.5 231 "/>
</clipPath>
<clipPath id="clip2">
  <path d="M 120 112.5 L 255 112.5 L 255 240 L 120 240 Z M 120 112.5 "/>
</clipPath>
</defs>
<g id="surface1">
<rect x="0" y="0" width="375" height="374.999991" style="fill:rgb(100%,100%,100%);fill-opacity:1;stroke:none;"/>
<rect x="0" y="0" width="375" height="374.999991" style="fill:rgb(100%,100%,100%);fill-opacity:1;stroke:none;"/>
<rect x="0" y="0" width="375" height="374.999991" style="fill:rgb(100%,100%,100%);fill-opacity:1;stroke:none;"/>
<path style=" stroke:none;fill-rule:evenodd;fill:rgb(42.349243%,49.01886%,60.389709%);fill-opacity:1;" d="M 179.753906 223.269531 C 179.753906 220.664062 179.753906 182.207031 179.753906 182.207031 C 179.785156 180.921875 179.191406 179.71875 178.152344 178.945312 C 172.023438 174.378906 167.882812 166.21875 167.882812 158.621094 C 167.882812 152.160156 171 146.40625 175.796875 142.796875 C 175.796875 142.796875 175.796875 154.664062 175.796875 154.664062 C 175.796875 161.207031 181.121094 166.53125 187.664062 166.53125 C 194.207031 166.53125 199.53125 161.207031 199.53125 154.664062 C 199.53125 154.664062 199.53125 142.796875 199.53125 142.796875 C 204.328125 146.40625 207.445312 152.160156 207.445312 158.621094 C 207.445312 166.21875 203.308594 174.378906 197.175781 178.945312 C 196.136719 179.71875 195.542969 180.921875 195.578125 182.207031 C 195.578125 182.207031 195.578125 220.664062 195.578125 223.269531 C 195.578125 225.445312 197.355469 227.226562 199.53125 227.226562 C 201.726562 227.226562 203.488281 225.445312 203.488281 223.269531 C 203.488281 221.011719 203.488281 191.933594 203.488281 184.023438 C 210.644531 177.855469 215.355469 167.917969 215.355469 158.621094 C 215.355469 146.570312 207.644531 136.320312 196.894531 132.511719 C 195.691406 132.082031 194.339844 132.265625 193.285156 133.003906 C 192.246094 133.746094 191.621094 134.949219 191.621094 136.234375 L 191.621094 154.664062 C 191.621094 156.839844 189.839844 158.621094 187.664062 158.621094 C 185.488281 158.621094 183.707031 156.839844 183.707031 154.664062 L 183.707031 136.234375 C 183.707031 134.949219 183.082031 133.746094 182.042969 133.003906 C 180.988281 132.265625 179.636719 132.082031 178.433594 132.511719 C 167.6875 136.320312 159.972656 146.570312 159.972656 158.621094 C 159.972656 167.917969 164.6875 177.875 171.839844 184.023438 C 171.839844 191.933594 171.839844 221.011719 171.839844 223.269531 C 171.839844 225.445312 173.621094 227.226562 175.796875 227.226562 C 177.988281 227.226562 179.753906 225.445312 179.753906 223.269531 Z M 179.753906 223.269531 "/>
<g clip-path="url(#clip1)" clip-rule="nonzero">
<path style=" stroke:none;fill-rule:evenodd;fill:rgb(42.349243%,49.01886%,60.389709%);fill-opacity:1;" d="M 262.828125 243.050781 C 262.828125 236.503906 257.503906 231.179688 250.960938 231.179688 L 211.402344 231.179688 C 209.207031 231.179688 207.445312 232.945312 207.445312 235.136719 L 207.445312 239.09375 C 207.445312 239.09375 167.882812 239.09375 167.882812 239.09375 C 167.882812 239.09375 167.882812 235.136719 167.882812 235.136719 C 167.882812 232.945312 166.121094 231.179688 163.929688 231.179688 L 124.367188 231.179688 C 117.824219 231.179688 112.5 236.503906 112.5 243.050781 L 112.5 250.960938 C 112.5 257.503906 117.824219 262.828125 124.367188 262.828125 L 250.960938 262.828125 C 257.503906 262.828125 262.828125 257.503906 262.828125 250.960938 Z M 254.917969 243.050781 L 254.917969 250.960938 C 254.917969 253.136719 253.136719 254.917969 250.960938 254.917969 C 250.960938 254.917969 124.367188 254.917969 124.367188 254.917969 C 122.191406 254.917969 120.410156 253.136719 120.410156 250.960938 C 120.410156 250.960938 120.410156 243.050781 120.410156 243.050781 C 120.410156 240.875 122.191406 239.09375 124.367188 239.09375 C 124.367188 239.09375 159.972656 239.09375 159.972656 239.09375 C 159.972656 239.09375 159.972656 243.050781 159.972656 243.050781 C 159.972656 245.242188 161.734375 247.003906 163.929688 247.003906 L 211.402344 247.003906 C 213.59375 247.003906 215.355469 245.242188 215.355469 243.050781 L 215.355469 239.09375 C 215.355469 239.09375 250.960938 239.09375 250.960938 239.09375 C 253.136719 239.09375 254.917969 240.875 254.917969 243.050781 Z M 254.917969 243.050781 "/>
</g>
<g clip-path="url(#clip2)" clip-rule="nonzero">
<path style=" stroke:none;fill-rule:evenodd;fill:rgb(42.349243%,49.01886%,60.389709%);fill-opacity:1;" d="M 254.917969 235.136719 L 254.917969 124.367188 C 254.917969 117.824219 249.59375 112.5 243.050781 112.5 C 243.050781 112.5 132.28125 112.5 132.28125 112.5 C 125.734375 112.5 120.410156 117.824219 120.410156 124.367188 L 120.410156 235.136719 C 120.410156 237.3125 122.191406 239.09375 124.367188 239.09375 C 126.542969 239.09375 128.324219 237.3125 128.324219 235.136719 L 128.324219 124.367188 C 128.324219 122.191406 130.105469 120.410156 132.28125 120.410156 L 243.050781 120.410156 C 245.226562 120.410156 247.003906 122.191406 247.003906 124.367188 C 247.003906 124.367188 247.003906 235.136719 247.003906 235.136719 C 247.003906 237.3125 248.785156 239.09375 250.960938 239.09375 C 253.136719 239.09375 254.917969 237.3125 254.917969 235.136719 Z M 254.917969 235.136719 "/>
</g>
</g>
</svg>
