<svg id="Group_23" data-name="Group 23" xmlns="http://www.w3.org/2000/svg" width="85.523" height="59.381" viewBox="0 0 85.523 59.381">
  <g id="Group_22" data-name="Group 22" transform="translate(0 6.337)">
    <rect id="Rectangle" width="2.737" height="38.487" transform="translate(44.01 2.243)" fill="#fff"/>
    <path id="Shape" d="M4.173,39.923H0V0H4.173ZM1.436,1.436V38.488h1.3V1.436Z" transform="translate(43.292 1.525)" fill="#fff"/>
    <path id="Path" d="M13.2,20.353a9.876,9.876,0,0,0,9.595-10.067A10.173,10.173,0,0,0,20,2.794,10.176,10.176,0,0,0,12.5,0H0V2.762H12.5c2.936,0,5.056.98,6.3,2.91a8.358,8.358,0,0,1,1.219,4.614,7.165,7.165,0,0,1-3.046,6.039,7.91,7.91,0,0,1-4.743,1.3H0v2.763H9.934l11.408,18.1h3.284Z" transform="translate(59.595 2.242)" fill="#fff"/>
    <path id="Shape-2" data-name="Shape" d="M26.646,39.928H21.664l-11.408-18.1H0v-4.2H12.954a8.117,8.117,0,0,0,3.7-.873,6.121,6.121,0,0,0,2.681-2.667c1.588-3.15.536-7.44-2.208-9A7.809,7.809,0,0,0,13.221,4.2H0V0H1.159L4.433,0,8.865,0c1.657,0,3.107,0,4.433,0a10.876,10.876,0,0,1,9.445,4.976,11.729,11.729,0,0,1,1.492,6.733,11,11,0,0,1-2.494,6.3,10.764,10.764,0,0,1-6.581,3.649l11.486,18.26ZM1.436,19.063v1.327h9.612l11.408,18.1h1.587L12.663,20.438c2.2-.143,4.313-.374,6.073-1.622a9.676,9.676,0,0,0,4.051-8.153,10.085,10.085,0,0,0-1.551-5.385,9.472,9.472,0,0,0-7.944-3.838c-1.182,0-2.475,0-3.953,0l-3.952,0-3.951,0V2.767H2.528l2.86,0,3.953,0c1.478,0,2.771,0,3.953,0a8.231,8.231,0,0,1,6.188,2.391,8.337,8.337,0,0,1,2.026,5.31,8.659,8.659,0,0,1-1.567,5.365,7.929,7.929,0,0,1-2.476,2.214,9.3,9.3,0,0,1-4.51,1.016Z" transform="translate(58.877 1.52)" fill="#fff"/>
    <path id="Path-2" data-name="Path" d="M2.523,3.127C1.506,2.734,1.18,2.421,1.18,1.842c0-.489.387-.981,1.25-.981a2.7,2.7,0,0,1,1.291.323l.062.033L4.066.372,4.024.349A3.161,3.161,0,0,0,2.459,0,2.054,2.054,0,0,0,.153,1.946c0,.927.6,1.57,1.873,2.024.927.355,1.273.714,1.273,1.325,0,.694-.535,1.127-1.4,1.127A3.135,3.135,0,0,1,.327,5.977l-.065-.04L0,6.8l.035.026a3.7,3.7,0,0,0,1.807.451c1.838,0,2.491-1.109,2.491-2.058,0-.992-.526-1.6-1.811-2.095" transform="translate(0.895 45.535)" fill="#fff"/>
    <path id="Shape-3" data-name="Shape" d="M2.132,7.725A4.434,4.434,0,0,1,.7,7.478a2.4,2.4,0,0,1-.542-.257L0,7.1.386,5.821A3.7,3.7,0,0,0,2.2,6.437a1.29,1.29,0,0,0,.849-.277.9.9,0,0,0,.209-1.041,1.824,1.824,0,0,0-1.119-.754l-.054-.02L1.964,4.3A2.575,2.575,0,0,1,.247,2.667,2.12,2.12,0,0,1,1,.524,2.841,2.841,0,0,1,2.732,0h.016A3.428,3.428,0,0,1,4.379.376l.2.112-.421,1.25a3.342,3.342,0,0,0-1.491-.45,1.419,1.419,0,0,0-.523.093.737.737,0,0,0-.464.64.922.922,0,0,0,.559.845,5.9,5.9,0,0,0,.618.276l.118.047.118.049A2.67,2.67,0,0,1,4.678,4.671a2.265,2.265,0,0,1-.984,2.67A3.137,3.137,0,0,1,2.132,7.725ZM.653,6.483.5,6.924a3.22,3.22,0,0,0,1.539.361,4.183,4.183,0,0,0,.545-.036A2.05,2.05,0,0,0,4.153,6.3a1.766,1.766,0,0,0-.181-1.979,3.552,3.552,0,0,0-1.3-.762c-.8-.333-1.553-.647-1.457-1.61a1.167,1.167,0,0,1,.622-.9A1.818,1.818,0,0,1,2.7.848a2.97,2.97,0,0,1,1.188.271L4.054.692a1.565,1.565,0,0,0-.2-.083L3.826.6A3.451,3.451,0,0,0,2.7.431H2.679A1.965,1.965,0,0,0,.652,1.815,1.606,1.606,0,0,0,.8,2.9,2.876,2.876,0,0,0,2.379,3.993l.105.042c.729.3,1.439.927,1.247,1.784a1.276,1.276,0,0,1-.693.852,2.075,2.075,0,0,1-.906.2A3.3,3.3,0,0,1,.653,6.483Z" transform="translate(0.645 45.32)" fill="#fff"/>
    <path id="Path-3" data-name="Path" d="M1.016,3.806h2.7V2.947h-2.7V.869H3.87V0H0V7.063H4.025V6.192H1.016Z" transform="translate(17.458 45.649)" fill="#fff"/>
    <path id="Shape-4" data-name="Shape" d="M4.456,7.494H0V0H4.3V1.3H1.447V2.947h2.7v1.29h-2.7V6.192H4.456v1.3ZM.431.431V7.063H4.026v-.44H1.016V3.806h2.7V3.378h-2.7V.869H3.87V.431Z" transform="translate(17.242 45.434)" fill="#fff"/>
    <path id="Path-4" data-name="Path" d="M1.015,0H0V7.063H3.984V6.192H1.015Z" transform="translate(35.441 45.649)" fill="#fff"/>
    <path id="Shape-5" data-name="Shape" d="M4.415,7.494H0V0H1.445V6.192h2.97v1.3ZM.431.431V7.063H3.984v-.44H1.015V.431Z" transform="translate(35.226 45.434)" fill="#fff"/>
    <path id="Path-5" data-name="Path" d="M0,7.063H1.016V3.921H3.643V3.06H1.016V.871H3.86V0H0Z" transform="translate(51.826 45.649)" fill="#fff"/>
    <path id="Shape-6" data-name="Shape" d="M1.447,7.494H0V0H4.29V1.3H1.447V3.06H4.074V4.352H1.447V7.493ZM.431.431V7.063h.585V3.921H3.643v-.43H1.016V.871H3.859V.431Z" transform="translate(51.611 45.434)" fill="#fff"/>
    <rect id="Rectangle-2" data-name="Rectangle" width="1.016" height="7.063" transform="translate(67.255 45.649)" fill="#fff"/>
    <path id="Shape-7" data-name="Shape" d="M1.447,7.494H0V0H1.447V7.493ZM.431.431V7.063h.585V.431Z" transform="translate(67.04 45.434)" fill="#fff"/>
    <path id="Path-6" data-name="Path" d="M1.016,6.192V3.806h2.7V2.947h-2.7V.869H3.87V0H0V7.062H4.024v-.87Z" transform="translate(80.545 45.65)" fill="#fff"/>
    <path id="Shape-8" data-name="Shape" d="M4.455,7.493H0V0H4.3V1.3H1.447V2.947h2.7v1.29h-2.7V6.192H4.455v1.3ZM.431.431V7.062H4.024V6.623H1.016V3.806h2.7V3.378h-2.7V.869H3.87V.431Z" transform="translate(80.329 45.435)" fill="#fff"/>
    <path id="Path-7" data-name="Path" d="M16.789.129,16.732,0,0,38.925H2.945L16.732,6.92,30.5,38.925h3Z" transform="translate(1.091 1.806)" fill="#fff"/>
    <path id="Shape-9" data-name="Shape" d="M4.509,41.449H0L17.817,0l.36.824.36.824,17.143,39.8h-4.56l-13.3-30.907L4.509,41.449ZM17.823,6.909v0l14.244,33.1H33.5L17.824,3.622,2.182,40.012H3.563l14.259-33.1Z" transform="translate(0 0)" fill="#fff"/>
  </g>
  <g id="Group" transform="translate(43.301 0)">
    <rect id="Rectangle-3" data-name="Rectangle" width="4.071" height="4.071" transform="translate(0.041)" fill="#28aae1"/>
  </g>
</svg>
